<svg xmlns="http://www.w3.org/2000/svg" xmlns:xlink="http://www.w3.org/1999/xlink" contentStyleType="text/css" data-diagram-type="CLASS" height="890px" preserveAspectRatio="none" style="width:953px;height:890px;background:#FFFFFF;" version="1.1" viewBox="0 0 953 890" width="953px" zoomAndPan="magnify"><?plantuml 1.2026.3beta4?><defs/><g><!--class Team--><g class="entity" data-qualified-name="Team" data-source-line="6" id="ent0002"><rect fill="#F1F1F1" height="64.2969" rx="2.5" ry="2.5" style="stroke:#181818;stroke-width:0.5;" width="114.3818" x="45.81" y="164.59"/><ellipse cx="80.16" cy="180.59" fill="#ADD1B2" rx="11" ry="11" style="stroke:#181818;stroke-width:1;"/><path d="M83.1288,186.2306 Q82.5506,186.5275 81.91,186.6681 Q81.2694,186.8244 80.5663,186.8244 Q78.0663,186.8244 76.7381,185.1838 Q75.4256,183.5275 75.4256,180.4025 Q75.4256,177.2775 76.7381,175.6213 Q78.0663,173.965 80.5663,173.965 Q81.2694,173.965 81.91,174.1213 Q82.5663,174.2775 83.1288,174.5744 L83.1288,177.2931 Q82.5038,176.715 81.91,176.4494 Q81.3163,176.1681 80.6913,176.1681 Q79.3475,176.1681 78.66,177.2463 Q77.9725,178.3088 77.9725,180.4025 Q77.9725,182.4963 78.66,183.5744 Q79.3475,184.6369 80.6913,184.6369 Q81.3163,184.6369 81.91,184.3713 Q82.5038,184.09 83.1288,183.5119 L83.1288,186.2306 Z " fill="#000000"/><text fill="#000000" font-family="sans-serif" font-size="14" lengthAdjust="spacing" textLength="39.3818" x="98.46" y="185.4367">Team</text><line style="stroke:#181818;stroke-width:0.5;" x1="46.81" x2="159.1918" y1="196.59" y2="196.59"/><text fill="#000000" font-family="sans-serif" font-size="14" lengthAdjust="spacing" textLength="102.3818" x="51.81" y="213.5851">+name: String</text><line style="stroke:#181818;stroke-width:0.5;" x1="46.81" x2="159.1918" y1="220.8869" y2="220.8869"/></g><!--class ArchElement--><g class="entity" data-qualified-name="ArchElement" data-source-line="13" id="ent0003"><rect fill="#F1F1F1" height="96.8906" rx="2.5" ry="2.5" style="stroke:#181818;stroke-width:0.5;" width="210.2627" x="634.87" y="504.23"/><ellipse cx="690.8187" cy="520.23" fill="#A9DCDF" rx="11" ry="11" style="stroke:#181818;stroke-width:1;"/><path d="M690.9281,515.5738 L689.7719,520.6519 L692.1,520.6519 L690.9281,515.5738 Z M689.4437,513.3394 L692.4281,513.3394 L695.7875,525.73 L693.3344,525.73 L692.5687,522.6675 L689.2875,522.6675 L688.5375,525.73 L686.1,525.73 L689.4437,513.3394 Z " fill="#000000"/><text fill="#000000" font-family="sans-serif" font-size="14" font-style="italic" lengthAdjust="spacing" textLength="89.8652" x="711.3187" y="525.0767">ArchElement</text><line style="stroke:#181818;stroke-width:0.5;" x1="635.87" x2="844.1327" y1="536.23" y2="536.23"/><text fill="#000000" font-family="sans-serif" font-size="14" lengthAdjust="spacing" textLength="75.4551" x="640.87" y="553.2251">+id: String</text><text fill="#000000" font-family="sans-serif" font-size="14" lengthAdjust="spacing" textLength="102.3818" x="640.87" y="569.522">+name: String</text><text fill="#000000" font-family="sans-serif" font-size="14" lengthAdjust="spacing" textLength="198.2627" x="640.87" y="585.8189">+criticality: {low|med|high}</text><line style="stroke:#181818;stroke-width:0.5;" x1="635.87" x2="844.1327" y1="593.1206" y2="593.1206"/></g><!--class DataNode--><g class="entity" data-qualified-name="DataNode" data-source-line="19" id="ent0004"><rect fill="#F1F1F1" height="64.2969" rx="2.5" ry="2.5" style="stroke:#181818;stroke-width:0.5;" width="397.1367" x="400.43" y="811.56"/><ellipse cx="559.7654" cy="827.56" fill="#ADD1B2" rx="11" ry="11" style="stroke:#181818;stroke-width:1;"/><path d="M562.7342,833.2006 Q562.1561,833.4975 561.5154,833.6381 Q560.8748,833.7944 560.1717,833.7944 Q557.6717,833.7944 556.3436,832.1538 Q555.0311,830.4975 555.0311,827.3725 Q555.0311,824.2475 556.3436,822.5913 Q557.6717,820.935 560.1717,820.935 Q560.8748,820.935 561.5154,821.0913 Q562.1717,821.2475 562.7342,821.5444 L562.7342,824.2631 Q562.1092,823.685 561.5154,823.4194 Q560.9217,823.1381 560.2967,823.1381 Q558.9529,823.1381 558.2654,824.2163 Q557.5779,825.2788 557.5779,827.3725 Q557.5779,829.4663 558.2654,830.5444 Q558.9529,831.6069 560.2967,831.6069 Q560.9217,831.6069 561.5154,831.3413 Q562.1092,831.06 562.7342,830.4819 L562.7342,833.2006 Z " fill="#000000"/><text fill="#000000" font-family="sans-serif" font-size="14" lengthAdjust="spacing" textLength="69.9658" x="580.2654" y="832.4067">DataNode</text><line style="stroke:#181818;stroke-width:0.5;" x1="401.43" x2="796.5667" y1="843.56" y2="843.56"/><text fill="#000000" font-family="sans-serif" font-size="14" lengthAdjust="spacing" textLength="385.1367" x="406.43" y="860.5551">+type: {Source|Ingestion|Processing|Storage|Serving}</text><line style="stroke:#181818;stroke-width:0.5;" x1="401.43" x2="796.5667" y1="867.8569" y2="867.8569"/></g><!--class DataFlow--><g class="entity" data-qualified-name="DataFlow" data-source-line="23" id="ent0005"><rect fill="#F1F1F1" height="64.2969" rx="2.5" ry="2.5" style="stroke:#181818;stroke-width:0.5;" width="175.5977" x="511.2" y="670.27"/><ellipse cx="562.056" cy="686.27" fill="#ADD1B2" rx="11" ry="11" style="stroke:#181818;stroke-width:1;"/><path d="M565.0247,691.9106 Q564.4466,692.2075 563.806,692.3481 Q563.1653,692.5044 562.4622,692.5044 Q559.9622,692.5044 558.6341,690.8638 Q557.3216,689.2075 557.3216,686.0825 Q557.3216,682.9575 558.6341,681.3013 Q559.9622,679.645 562.4622,679.645 Q563.1653,679.645 563.806,679.8013 Q564.4622,679.9575 565.0247,680.2544 L565.0247,682.9731 Q564.3997,682.395 563.806,682.1294 Q563.2122,681.8481 562.5872,681.8481 Q561.2435,681.8481 560.556,682.9263 Q559.8685,683.9888 559.8685,686.0825 Q559.8685,688.1763 560.556,689.2544 Q561.2435,690.3169 562.5872,690.3169 Q563.2122,690.3169 563.806,690.0513 Q564.3997,689.77 565.0247,689.1919 L565.0247,691.9106 Z " fill="#000000"/><text fill="#000000" font-family="sans-serif" font-size="14" lengthAdjust="spacing" textLength="65.3857" x="582.556" y="691.1167">DataFlow</text><line style="stroke:#181818;stroke-width:0.5;" x1="512.2" x2="685.7977" y1="702.27" y2="702.27"/><text fill="#000000" font-family="sans-serif" font-size="14" lengthAdjust="spacing" textLength="163.5977" x="517.2" y="719.2651">+type: {stream|batch}</text><line style="stroke:#181818;stroke-width:0.5;" x1="512.2" x2="685.7977" y1="726.5669" y2="726.5669"/></g><!--class Contract--><g class="entity" data-qualified-name="Contract" data-source-line="37" id="ent0011"><rect fill="#F1F1F1" height="96.8906" rx="2.5" ry="2.5" style="stroke:#181818;stroke-width:0.5;" width="243.8408" x="59.08" y="322.19"/><ellipse cx="146.6381" cy="338.19" fill="#ADD1B2" rx="11" ry="11" style="stroke:#181818;stroke-width:1;"/><path d="M149.6069,343.8306 Q149.0287,344.1275 148.3881,344.2681 Q147.7475,344.4244 147.0444,344.4244 Q144.5444,344.4244 143.2162,342.7838 Q141.9037,341.1275 141.9037,338.0025 Q141.9037,334.8775 143.2162,333.2213 Q144.5444,331.565 147.0444,331.565 Q147.7475,331.565 148.3881,331.7213 Q149.0444,331.8775 149.6069,332.1744 L149.6069,334.8931 Q148.9819,334.315 148.3881,334.0494 Q147.7944,333.7681 147.1694,333.7681 Q145.8256,333.7681 145.1381,334.8463 Q144.4506,335.9088 144.4506,338.0025 Q144.4506,340.0963 145.1381,341.1744 Q145.8256,342.2369 147.1694,342.2369 Q147.7944,342.2369 148.3881,341.9713 Q148.9819,341.69 149.6069,341.1119 L149.6069,343.8306 Z " fill="#000000"/><text fill="#000000" font-family="sans-serif" font-size="14" lengthAdjust="spacing" textLength="60.2246" x="167.1381" y="343.0367">Contract</text><line style="stroke:#181818;stroke-width:0.5;" x1="60.08" x2="301.9208" y1="354.19" y2="354.19"/><text fill="#000000" font-family="sans-serif" font-size="14" lengthAdjust="spacing" textLength="75.4551" x="65.08" y="371.1851">+id: String</text><text fill="#000000" font-family="sans-serif" font-size="14" lengthAdjust="spacing" textLength="113.9551" x="65.08" y="387.482">+version: String</text><text fill="#000000" font-family="sans-serif" font-size="14" lengthAdjust="spacing" textLength="231.8408" x="65.08" y="403.7789">+policy: {enforce|warn|monitor}</text><line style="stroke:#181818;stroke-width:0.5;" x1="60.08" x2="301.9208" y1="411.0806" y2="411.0806"/></g><!--class Clause--><g class="entity" data-qualified-name="Clause" data-source-line="43" id="ent0012"><rect fill="#F1F1F1" height="113.1875" rx="2.5" ry="2.5" style="stroke:#181818;stroke-width:0.5;" width="375.5283" x="177.24" y="496.08"/><ellipse cx="337.242" cy="512.08" fill="#ADD1B2" rx="11" ry="11" style="stroke:#181818;stroke-width:1;"/><path d="M340.2107,517.7206 Q339.6326,518.0175 338.992,518.1581 Q338.3513,518.3144 337.6482,518.3144 Q335.1482,518.3144 333.8201,516.6738 Q332.5076,515.0175 332.5076,511.8925 Q332.5076,508.7675 333.8201,507.1113 Q335.1482,505.455 337.6482,505.455 Q338.3513,505.455 338.992,505.6113 Q339.6482,505.7675 340.2107,506.0644 L340.2107,508.7831 Q339.5857,508.205 338.992,507.9394 Q338.3982,507.6581 337.7732,507.6581 Q336.4295,507.6581 335.742,508.7363 Q335.0545,509.7988 335.0545,511.8925 Q335.0545,513.9863 335.742,515.0644 Q336.4295,516.1269 337.7732,516.1269 Q338.3982,516.1269 338.992,515.8613 Q339.5857,515.58 340.2107,515.0019 L340.2107,517.7206 Z " fill="#000000"/><text fill="#000000" font-family="sans-serif" font-size="14" lengthAdjust="spacing" textLength="47.0244" x="357.742" y="516.9267">Clause</text><line style="stroke:#181818;stroke-width:0.5;" x1="178.24" x2="551.7683" y1="528.08" y2="528.08"/><text fill="#000000" font-family="sans-serif" font-size="14" lengthAdjust="spacing" textLength="333.8672" x="183.24" y="545.0751">+type: {Schema|Constraint|SLO|Compatibility}</text><text fill="#000000" font-family="sans-serif" font-size="14" lengthAdjust="spacing" textLength="363.5283" x="183.24" y="561.372">+expr: String    ' thresholds / required fields / policy</text><text fill="#000000" font-family="sans-serif" font-size="14" lengthAdjust="spacing" textLength="263.1563" x="183.24" y="577.6689">+stage: {ingest|process|store|serve}</text><text fill="#000000" font-family="sans-serif" font-size="14" lengthAdjust="spacing" textLength="212.1738" x="183.24" y="593.9657">+severity: {info|warn|critical}</text><line style="stroke:#181818;stroke-width:0.5;" x1="178.24" x2="551.7683" y1="601.2675" y2="601.2675"/></g><!--class Evidence--><g class="entity" data-qualified-name="Evidence" data-source-line="57" id="ent0016"><rect fill="#F1F1F1" height="96.8906" rx="2.5" ry="2.5" style="stroke:#181818;stroke-width:0.5;" width="179.1113" x="697.44" y="322.19"/><ellipse cx="750.8936" cy="338.19" fill="#ADD1B2" rx="11" ry="11" style="stroke:#181818;stroke-width:1;"/><path d="M753.8624,343.8306 Q753.2842,344.1275 752.6436,344.2681 Q752.003,344.4244 751.2999,344.4244 Q748.7999,344.4244 747.4717,342.7838 Q746.1592,341.1275 746.1592,338.0025 Q746.1592,334.8775 747.4717,333.2213 Q748.7999,331.565 751.2999,331.565 Q752.003,331.565 752.6436,331.7213 Q753.2999,331.8775 753.8624,332.1744 L753.8624,334.8931 Q753.2374,334.315 752.6436,334.0494 Q752.0499,333.7681 751.4249,333.7681 Q750.0811,333.7681 749.3936,334.8463 Q748.7061,335.9088 748.7061,338.0025 Q748.7061,340.0963 749.3936,341.1744 Q750.0811,342.2369 751.4249,342.2369 Q752.0499,342.2369 752.6436,341.9713 Q753.2374,341.69 753.8624,341.1119 L753.8624,343.8306 Z " fill="#000000"/><text fill="#000000" font-family="sans-serif" font-size="14" lengthAdjust="spacing" textLength="63.7041" x="771.3936" y="343.0367">Evidence</text><line style="stroke:#181818;stroke-width:0.5;" x1="698.44" x2="875.5513" y1="354.19" y2="354.19"/><text fill="#000000" font-family="sans-serif" font-size="14" lengthAdjust="spacing" textLength="149.8164" x="703.44" y="371.1851">+timeWindow: String</text><text fill="#000000" font-family="sans-serif" font-size="14" lengthAdjust="spacing" textLength="139.7881" x="703.44" y="387.482">+status: {pass|fail}</text><text fill="#000000" font-family="sans-serif" font-size="14" lengthAdjust="spacing" textLength="167.1113" x="703.44" y="403.7789">+observedValue: String</text><line style="stroke:#181818;stroke-width:0.5;" x1="698.44" x2="875.5513" y1="411.0806" y2="411.0806"/></g><!--class ChangeSet--><g class="entity" data-qualified-name="ChangeSet" data-source-line="69" id="ent0019"><rect fill="#F1F1F1" height="96.8906" rx="2.5" ry="2.5" style="stroke:#181818;stroke-width:0.5;" width="151.1797" x="198.41" y="148.3"/><ellipse cx="232.5754" cy="164.3" fill="#ADD1B2" rx="11" ry="11" style="stroke:#181818;stroke-width:1;"/><path d="M235.5442,169.9406 Q234.9661,170.2375 234.3254,170.3781 Q233.6848,170.5344 232.9817,170.5344 Q230.4817,170.5344 229.1536,168.8938 Q227.8411,167.2375 227.8411,164.1125 Q227.8411,160.9875 229.1536,159.3313 Q230.4817,157.675 232.9817,157.675 Q233.6848,157.675 234.3254,157.8313 Q234.9817,157.9875 235.5442,158.2844 L235.5442,161.0031 Q234.9192,160.425 234.3254,160.1594 Q233.7317,159.8781 233.1067,159.8781 Q231.7629,159.8781 231.0754,160.9563 Q230.3879,162.0188 230.3879,164.1125 Q230.3879,166.2063 231.0754,167.2844 Q231.7629,168.3469 233.1067,168.3469 Q233.7317,168.3469 234.3254,168.0813 Q234.9192,167.8 235.5442,167.2219 L235.5442,169.9406 Z " fill="#000000"/><text fill="#000000" font-family="sans-serif" font-size="14" lengthAdjust="spacing" textLength="76.5898" x="250.8344" y="169.1467">ChangeSet</text><line style="stroke:#181818;stroke-width:0.5;" x1="199.41" x2="348.5897" y1="180.3" y2="180.3"/><text fill="#000000" font-family="sans-serif" font-size="14" lengthAdjust="spacing" textLength="105.1436" x="204.41" y="197.2951">+fromV: String</text><text fill="#000000" font-family="sans-serif" font-size="14" lengthAdjust="spacing" textLength="86.3105" x="204.41" y="213.592">+toV: String</text><text fill="#000000" font-family="sans-serif" font-size="14" lengthAdjust="spacing" textLength="139.1797" x="204.41" y="229.8889">+breaking: Boolean</text><line style="stroke:#181818;stroke-width:0.5;" x1="199.41" x2="348.5897" y1="237.1906" y2="237.1906"/></g><!--class ImpactReport--><g class="entity" data-qualified-name="ImpactReport" data-source-line="75" id="ent0020"><rect fill="#F1F1F1" height="64.2969" rx="2.5" ry="2.5" style="stroke:#181818;stroke-width:0.5;" width="127.457" x="492.27" y="7"/><ellipse cx="507.27" cy="23" fill="#ADD1B2" rx="11" ry="11" style="stroke:#181818;stroke-width:1;"/><path d="M510.2388,28.6406 Q509.6606,28.9375 509.02,29.0781 Q508.3794,29.2344 507.6763,29.2344 Q505.1763,29.2344 503.8481,27.5938 Q502.5356,25.9375 502.5356,22.8125 Q502.5356,19.6875 503.8481,18.0313 Q505.1763,16.375 507.6763,16.375 Q508.3794,16.375 509.02,16.5313 Q509.6763,16.6875 510.2388,16.9844 L510.2388,19.7031 Q509.6138,19.125 509.02,18.8594 Q508.4263,18.5781 507.8013,18.5781 Q506.4575,18.5781 505.77,19.6563 Q505.0825,20.7188 505.0825,22.8125 Q505.0825,24.9063 505.77,25.9844 Q506.4575,27.0469 507.8013,27.0469 Q508.4263,27.0469 509.02,26.7813 Q509.6138,26.5 510.2388,25.9219 L510.2388,28.6406 Z " fill="#000000"/><text fill="#000000" font-family="sans-serif" font-size="14" lengthAdjust="spacing" textLength="95.457" x="521.27" y="27.8467">ImpactReport</text><line style="stroke:#181818;stroke-width:0.5;" x1="493.27" x2="618.727" y1="39" y2="39"/><text fill="#000000" font-family="sans-serif" font-size="14" lengthAdjust="spacing" textLength="101.5137" x="498.27" y="55.9951">+notes: String</text><line style="stroke:#181818;stroke-width:0.5;" x1="493.27" x2="618.727" y1="63.2969" y2="63.2969"/></g><g class="entity" data-qualified-name="GMN24" data-source-line="84" id="ent0025"><path d="M337.56,342.93 L337.56,366.63 L303.12,370.63 L337.56,374.63 L337.56,398.3284 A0,0 0 0 0 337.56,398.3284 L662.435,398.3284 A0,0 0 0 0 662.435,398.3284 L662.435,352.93 L652.435,342.93 L337.56,342.93 A0,0 0 0 0 337.56,342.93" fill="#FEFFDD" style="stroke:#181818;stroke-width:0.5;"/><path d="M652.435,342.93 L652.435,352.93 L662.435,352.93 L652.435,342.93" fill="#FEFFDD" style="stroke:#181818;stroke-width:0.5;"/><text fill="#000000" font-family="sans-serif" font-size="13" lengthAdjust="spacing" textLength="167.0894" x="343.56" y="359.9969">First-class: binds to BOTH</text><text fill="#000000" font-family="sans-serif" font-size="13" lengthAdjust="spacing" textLength="224.0215" x="343.56" y="375.1297">DataNode (component guarantee)</text><text fill="#000000" font-family="sans-serif" font-size="13" lengthAdjust="spacing" textLength="303.875" x="343.56" y="390.2625">and DataFlow (connector/interface obligation).</text></g><!--reverse link ArchElement to DataNode--><g class="link" data-entity-1="ent0003" data-entity-2="ent0004" data-link-type="extension" data-source-line="27" id="lnk6"><path codeLine="27" d="M736.2887,619.3895 C732.9187,657.3595 725.88,692.89 704,734.56 C688.37,764.34 661.97,791.47 639.56,811.11" fill="none" id="ArchElement-backto-DataNode" style="stroke:#181818;stroke-width:1;"/><polygon fill="none" points="737.88,601.46,730.3122,618.8591,742.2652,619.92,737.88,601.46" style="stroke:#181818;stroke-width:1;"/></g><!--reverse link ArchElement to DataFlow--><g class="link" data-entity-1="ent0003" data-entity-2="ent0005" data-link-type="extension" data-source-line="28" id="lnk7"><path codeLine="28" d="M682.1845,614.2533 C660.7745,636.6933 648.23,649.83 629.18,669.8" fill="none" id="ArchElement-backto-DataFlow" style="stroke:#181818;stroke-width:1;"/><polygon fill="none" points="694.61,601.23,677.8434,610.1115,686.5256,618.3951,694.61,601.23" style="stroke:#181818;stroke-width:1;"/></g><!--reverse link Team to DataNode--><g class="link" data-entity-1="ent0002" data-entity-2="ent0004" data-link-type="dependency" data-source-line="30" id="lnk8"><path codeLine="30" d="M68.0858,233.8127 C39.6958,266.2127 6,314.98 6,369.63 C6,369.63 6,369.63 6,703.41 C6,786.23 227.97,819.85 400.3,833.48" fill="none" id="Team-backto-DataNode" style="stroke:#181818;stroke-width:1;"/><polygon fill="#181818" points="72.04,229.3,63.1003,233.4329,68.7448,233.0606,69.1172,238.7052,72.04,229.3" style="stroke:#181818;stroke-width:1;"/><text fill="#000000" font-family="sans-serif" font-size="13" lengthAdjust="spacing" textLength="40.168" x="7" y="557.2369">owner</text><text fill="#000000" font-family="sans-serif" font-size="13" lengthAdjust="spacing" textLength="8.271" x="57.4014" y="249.0163">1</text><text fill="#000000" font-family="sans-serif" font-size="13" lengthAdjust="spacing" textLength="23.0356" x="369.0898" y="829.857">0..*</text></g><!--link DataFlow to DataNode--><g class="link" data-entity-1="ent0005" data-entity-2="ent0004" data-link-type="dependency" data-source-line="31" id="lnk9"><path codeLine="31" d="M574.26,734.74 C568.43,743.86 563.03,754.17 560,764.56 C555.33,780.57 558.5966,792.2316 567.5866,806.0416" fill="none" id="DataFlow-to-DataNode" style="stroke:#181818;stroke-width:1;"/><polygon fill="#181818" points="570.86,811.07,569.3022,801.3451,568.1322,806.8797,562.5976,805.7096,570.86,811.07" style="stroke:#181818;stroke-width:1;"/><text fill="#000000" font-family="sans-serif" font-size="13" lengthAdjust="spacing" textLength="30.5386" x="561" y="777.6269">from</text><text fill="#000000" font-family="sans-serif" font-size="13" lengthAdjust="spacing" textLength="8.271" x="560.6287" y="754.6598">1</text><text fill="#000000" font-family="sans-serif" font-size="13" lengthAdjust="spacing" textLength="8.271" x="556.7595" y="800.4982">1</text></g><!--link DataFlow to DataNode--><g class="link" data-entity-1="ent0005" data-entity-2="ent0004" data-link-type="dependency" data-source-line="32" id="lnk10"><path codeLine="32" d="M599,735.02 C599,757.82 599,782.46 599,805.23" fill="none" id="DataFlow-to-DataNode-1" style="stroke:#181818;stroke-width:1;"/><polygon fill="#181818" points="599,811.23,603,802.23,599,806.23,595,802.23,599,811.23" style="stroke:#181818;stroke-width:1;"/><text fill="#000000" font-family="sans-serif" font-size="13" lengthAdjust="spacing" textLength="13.0508" x="600" y="777.6269">to</text><text fill="#000000" font-family="sans-serif" font-size="13" lengthAdjust="spacing" textLength="8.271" x="590.2636" y="754.7439">1</text><text fill="#000000" font-family="sans-serif" font-size="13" lengthAdjust="spacing" textLength="8.271" x="590.2395" y="800.4392">1</text></g><!--reverse link Team to Contract--><g class="link" data-entity-1="ent0002" data-entity-2="ent0011" data-link-type="dependency" data-source-line="50" id="lnk13"><path codeLine="50" d="M119.2935,234.7688 C127.4135,253.1588 135.49,271.28 145,292.19 C149.36,301.77 154.07,312 158.6,321.77" fill="none" id="Team-backto-Contract" style="stroke:#181818;stroke-width:1;"/><polygon fill="#181818" points="116.87,229.28,116.8461,239.1288,118.8896,233.854,124.1645,235.8975,116.87,229.28" style="stroke:#181818;stroke-width:1;"/><text fill="#000000" font-family="sans-serif" font-size="13" lengthAdjust="spacing" textLength="40.168" x="146" y="288.2569">owner</text><text fill="#000000" font-family="sans-serif" font-size="13" lengthAdjust="spacing" textLength="8.271" x="110.7771" y="248.9925">1</text><text fill="#000000" font-family="sans-serif" font-size="13" lengthAdjust="spacing" textLength="23.0356" x="131.047" y="311.2717">0..*</text></g><!--link Contract to ArchElement--><g class="link" data-entity-1="ent0011" data-entity-2="ent0003" data-link-type="dependency" data-source-line="51" id="lnk14"><path codeLine="51" d="M303.35,413.62 C308.97,415.48 314.54,417.31 320,419.08 C430.58,454.97 459.19,460.9 570,496.08 C590.87,502.7 607.4249,508.042 628.7349,514.982" fill="none" id="Contract-to-ArchElement" style="stroke:#181818;stroke-width:1;"/><polygon fill="#181818" points="634.44,516.84,627.121,510.2497,629.6858,515.2917,624.6437,517.8564,634.44,516.84" style="stroke:#181818;stroke-width:1;"/><text fill="#000000" font-family="sans-serif" font-size="13" lengthAdjust="spacing" textLength="51.0225" x="471" y="462.1469">bindsTo</text><text fill="#000000" font-family="sans-serif" font-size="13" lengthAdjust="spacing" textLength="8.271" x="311.0577" y="412.8533">1</text><text fill="#000000" font-family="sans-serif" font-size="13" lengthAdjust="spacing" textLength="8.271" x="618.746" y="510.8645">1</text></g><!--reverse link Contract to Clause--><g class="link" data-entity-1="ent0011" data-entity-2="ent0012" data-link-type="aggregation" data-source-line="52" id="lnk15"><path codeLine="52" d="M238.4061,427.8035 C262.3561,451.2435 282.79,471.23 307.78,495.68" fill="none" id="Contract-backto-Clause" style="stroke:#181818;stroke-width:1;"/><polygon fill="none" points="229.83,419.41,231.3202,426.4654,238.4061,427.8035,236.9159,420.748,229.83,419.41" style="stroke:#181818;stroke-width:1;"/><text fill="#000000" font-family="sans-serif" font-size="13" lengthAdjust="spacing" textLength="55.0278" x="274" y="462.1469">contains</text><text fill="#000000" font-family="sans-serif" font-size="13" lengthAdjust="spacing" textLength="8.271" x="227.8722" y="439.0477">1</text><text fill="#000000" font-family="sans-serif" font-size="13" lengthAdjust="spacing" textLength="23.0356" x="276.4064" y="484.8948">1..*</text></g><!--link Evidence to Clause--><g class="link" data-entity-1="ent0016" data-entity-2="ent0012" data-link-type="dependency" data-source-line="63" id="lnk17"><path codeLine="63" d="M697.15,411.62 C691.35,414.16 685.6,416.66 680,419.08 C621.04,444.56 561.154,469.8816 505.274,493.2916" fill="none" id="Evidence-to-Clause" style="stroke:#181818;stroke-width:1;"/><polygon fill="#181818" points="499.74,495.61,509.5866,495.8218,504.3517,493.678,506.4954,488.4431,499.74,495.61" style="stroke:#181818;stroke-width:1;"/><text fill="#000000" font-family="sans-serif" font-size="13" lengthAdjust="spacing" textLength="58.9697" x="603" y="462.1469">validates</text><text fill="#000000" font-family="sans-serif" font-size="13" lengthAdjust="spacing" textLength="23.0356" x="670.5619" y="412.1024">0..*</text><text fill="#000000" font-family="sans-serif" font-size="13" lengthAdjust="spacing" textLength="8.271" x="507.6899" y="484.8163">1</text></g><!--link Evidence to ArchElement--><g class="link" data-entity-1="ent0016" data-entity-2="ent0003" data-link-type="dependency" data-source-line="64" id="lnk18"><path codeLine="64" d="M774.53,419.41 C767.7,445.56 760.7847,472.0443 753.9647,498.1843" fill="none" id="Evidence-to-ArchElement" style="stroke:#181818;stroke-width:1;"/><polygon fill="#181818" points="752.45,503.99,758.5925,496.2913,753.7123,499.152,750.8516,494.2717,752.45,503.99" style="stroke:#181818;stroke-width:1;"/><text fill="#000000" font-family="sans-serif" font-size="13" lengthAdjust="spacing" textLength="78.7363" x="767" y="462.1469">observedOn</text><text fill="#000000" font-family="sans-serif" font-size="13" lengthAdjust="spacing" textLength="23.0356" x="748.312" y="439.0477">0..*</text><text fill="#000000" font-family="sans-serif" font-size="13" lengthAdjust="spacing" textLength="8.271" x="745.6571" y="493.1652">1</text></g><!--link ChangeSet to Contract--><g class="link" data-entity-1="ent0019" data-entity-2="ent0011" data-link-type="dependency" data-source-line="79" id="lnk21"><path codeLine="79" d="M248.09,245.62 C235.25,269.37 222.6352,292.6829 209.7852,316.4329" fill="none" id="ChangeSet-to-Contract" style="stroke:#181818;stroke-width:1;"/><polygon fill="#181818" points="206.93,321.71,214.7309,315.6978,209.3093,317.3124,207.6947,311.8909,206.93,321.71" style="stroke:#181818;stroke-width:1;"/><text fill="#000000" font-family="sans-serif" font-size="13" lengthAdjust="spacing" textLength="35.8262" x="231" y="288.2569">diffOf</text><text fill="#000000" font-family="sans-serif" font-size="13" lengthAdjust="spacing" textLength="8.271" x="236.0891" y="265.2712">1</text><text fill="#000000" font-family="sans-serif" font-size="13" lengthAdjust="spacing" textLength="8.271" x="201.895" y="311.2037">1</text></g><!--link ImpactReport to ChangeSet--><g class="link" data-entity-1="ent0020" data-entity-2="ent0019" data-link-type="dependency" data-source-line="80" id="lnk22"><path codeLine="80" d="M498.93,71.64 C456.04,95.3 402.113,125.0507 355.223,150.9307" fill="none" id="ImpactReport-to-ChangeSet" style="stroke:#181818;stroke-width:1;"/><polygon fill="#181818" points="349.97,153.83,359.7824,152.9831,354.3475,151.4139,355.9167,145.9791,349.97,153.83" style="stroke:#181818;stroke-width:1;"/><text fill="#000000" font-family="sans-serif" font-size="13" lengthAdjust="spacing" textLength="57.0718" x="441" y="114.3669">analyzes</text><text fill="#000000" font-family="sans-serif" font-size="13" lengthAdjust="spacing" textLength="8.271" x="479.3146" y="91.3429">1</text><text fill="#000000" font-family="sans-serif" font-size="13" lengthAdjust="spacing" textLength="8.271" x="357.6051" y="146.098">1</text></g><!--link ImpactReport to ArchElement--><g class="link" data-entity-1="ent0020" data-entity-2="ent0003" data-link-type="dependency" data-source-line="81" id="lnk23"><path codeLine="81" d="M620.12,71.16 C701.35,114.48 837.55,201.57 894,322.19 C912.25,361.19 908.87,378.66 894,419.08 C881.21,453.84 857.802,478.8027 828.982,500.3927" fill="none" id="ImpactReport-to-ArchElement" style="stroke:#181818;stroke-width:1;"/><polygon fill="#181818" points="824.18,503.99,833.7812,501.7953,828.1817,500.9922,828.9848,495.3927,824.18,503.99" style="stroke:#181818;stroke-width:1;"/><text fill="#000000" font-family="sans-serif" font-size="13" lengthAdjust="spacing" textLength="60.9883" x="877" y="288.2569">impacted</text><text fill="#000000" font-family="sans-serif" font-size="13" lengthAdjust="spacing" textLength="8.271" x="624.548" y="91.3899">1</text><text fill="#000000" font-family="sans-serif" font-size="13" lengthAdjust="spacing" textLength="23.0356" x="811.4029" y="493.1652">0..*</text></g><?plantuml-src XLLDRzim3BthLmWvhEk6zEDgT0FQhiKA3Cim5zsPbcbRg2rvafoihVhVHrc9OnTfueiZXU8ZttkYxQDKBHXekAZ1saldZCmwXtT2grG-8pzZxEZBEmyxujVQ80VXjB7ybEkLGcChsUuvq-FmUoJ85yRvPmKD9ZmbN5Mor_rebqPKqg5m7Q5c81uphN3F2SYiCrHTRAu_VbDZWyf5R9aFo6yheRKmqaa1jNHF2N-fzSetcFjAbjLhA3Jc_0OEVkeSOqBtr5AAbrHtHg2_KoLQ9xNolumMQ2qbzYbn1INw5CsIrczItHBC91KrG5Jv39o8iECcBlnyFbIm-v-GaB6UxjdvZ5_GzkpivEJJR5jv4dLZ0tu8dC-_zkzHL65qSp38wKE6KRqabeFbXJJMpVlk3pfcSt2NSajo7T4ytcfrBKNG3LMXWnWhCCetMadYVqJwTGsTVQEUgB01Ju31FL8vd_vOqB9fmSbC1Z-yXd3yrveD9AVdYBlAeArqdOVBOF1l9mtcr2N6dLXJE6eTMO2WPEyGtqPxU4kreRVa3EmHB59dqNwIseWzR6pPDx5Bs86fZR33nbYpiLiIdacLstiz3TKXvtdC6MbAECq5HvpOWoeJwmqeWHoNCaVwSL3XctNWMWpPu1-gIg_6iX9nhhF4HqidV06oxedIMKzQ_W1rDvacGyurDvlkXtwMTBzpS6ZV3PqIjK5QgFqCt2nrtOMxppzmISuHxh33Ao0xfBYsUBXk3-FUdPuiCneCDBtBX5zfNIEehQdlUi3Vs6gpJgOqjJWcPWisDiN8EhaiYaN19gaceKE2X8E2-kcPEDmT7VcSyXWvmPonK1etD5KTryLG0RlTpeQrFMcsyAl5_NSsZ9kFWYubVG8eOzdHLqmvn6C6Aj_EKWfH2iC7wfHkCfe2I66TrRA4eCxn2KCA3pNy1m00?></g></svg>